<?xml version="1.0" encoding="utf-8"?>
<!-- Generator: Adobe Illustrator 15.0.0, SVG Export Plug-In . SVG Version: 6.00 Build 0)  -->
<!DOCTYPE svg PUBLIC "-//W3C//DTD SVG 1.1//EN" "http://www.w3.org/Graphics/SVG/1.1/DTD/svg11.dtd">
<svg version="1.1" id="Layer_1" xmlns="http://www.w3.org/2000/svg" xmlns:xlink="http://www.w3.org/1999/xlink" x="0px" y="0px"
	 width="850.39px" height="850.39px" viewBox="0 0 850.39 850.39" enable-background="new 0 0 850.39 850.39" xml:space="preserve">
<circle fill="#4366B0" cx="425.239" cy="425.387" r="18.87"/>
<path fill="#FFFFFF" d="M424.125,416.697c-0.551,0.243-0.977,0.559-1.279,0.948c-0.309,0.389-0.516,0.895-0.625,1.51
	c-0.109,0.616-0.166,1.179-0.166,1.694v0.567h-1.798v3.547h1.798v9.064h4.836v-9.064h2.309v-3.547h-2.309
	c0-0.563,0.021-0.932,0.061-1.102c0.078-0.32,0.211-0.551,0.401-0.696c0.19-0.146,0.503-0.219,0.94-0.219
	c0.355,0,0.822,0.048,1.4,0.142l0.527-2.909c-1.613-0.198-2.84-0.296-3.686-0.296C425.478,416.336,424.672,416.458,424.125,416.697z
	"/>
</svg>
