<?xml version="1.0" encoding="utf-8"?>
<!-- Generator: Adobe Illustrator 15.0.0, SVG Export Plug-In . SVG Version: 6.00 Build 0)  -->
<!DOCTYPE svg PUBLIC "-//W3C//DTD SVG 1.1//EN" "http://www.w3.org/Graphics/SVG/1.1/DTD/svg11.dtd">
<svg version="1.1" id="Layer_1" xmlns="http://www.w3.org/2000/svg" xmlns:xlink="http://www.w3.org/1999/xlink" x="0px" y="0px"
	 width="850.39px" height="850.39px" viewBox="0 0 850.39 850.39" enable-background="new 0 0 850.39 850.39" xml:space="preserve">
<circle fill="#3BBADD" cx="424.509" cy="425.387" r="18.87"/>
<path fill="#FFFFFF" d="M427.066,425.475h1.473h0.21c1.229,0,2.233-1.005,2.233-2.233s-1.005-2.233-2.233-2.233h-0.21h-1.473h-4.628
	v-0.647v-1.519c0-1.21-0.99-2.201-2.201-2.201c-1.21,0-2.201,0.99-2.201,2.201v4.157v0.826v3.512c0,3.738,3.059,6.796,6.797,6.796
	h2.233h0.614h0.012h1.057c1.229,0,2.233-1.005,2.233-2.233c0-1.228-1.005-2.232-2.233-2.232h-0.695h-0.987h-2.622
	c-1.104,0-2.006-0.903-2.006-2.008v-2.184H427.066z"/>
</svg>
