<?xml version="1.0" encoding="utf-8"?>
<!-- Generator: Adobe Illustrator 15.0.0, SVG Export Plug-In . SVG Version: 6.00 Build 0)  -->
<!DOCTYPE svg PUBLIC "-//W3C//DTD SVG 1.1//EN" "http://www.w3.org/Graphics/SVG/1.1/DTD/svg11.dtd">
<svg version="1.1" id="Layer_1" xmlns="http://www.w3.org/2000/svg" xmlns:xlink="http://www.w3.org/1999/xlink" x="0px" y="0px"
	 width="850.39px" height="850.39px" viewBox="0 0 850.39 850.39" enable-background="new 0 0 850.39 850.39" xml:space="preserve">
<g>
	<path fill="#E0D6C6" d="M405.63,425.47c0,10.421,8.448,18.87,18.87,18.87c10.421,0,18.869-8.449,18.869-18.87
		c0-2.064-0.343-4.045-0.956-5.905h-35.827C405.973,421.424,405.63,423.405,405.63,425.47z"/>
	<path fill="#A56854" d="M424.5,406.6c-8.357,0-15.435,5.438-17.914,12.965h35.827C439.933,412.039,432.856,406.6,424.5,406.6z"/>
	<circle fill="#9C795E" cx="424.5" cy="426.962" r="11.976"/>
	<circle fill="#FFFFFF" cx="424.5" cy="425.47" r="11.976"/>
	<circle fill="#0D0F19" cx="424.5" cy="425.47" r="10.03"/>
	<circle fill="#395381" cx="424.5" cy="425.47" r="8.59"/>
	<circle fill="#1B2534" cx="424.5" cy="425.47" r="5.576"/>
	<circle fill="#506D99" cx="426.399" cy="423.641" r="1.918"/>
	<path fill="#222728" d="M430.366,407.536c-0.006,0.104-0.016,0.206-0.016,0.311c0,3.262,2.645,5.906,5.906,5.906h3.004
		C436.989,410.89,433.915,408.698,430.366,407.536z"/>
	<path fill="#F15946" d="M406.586,419.565h1.265v-2.941C407.352,417.562,406.923,418.542,406.586,419.565z"/>
	<path fill="#FFD151" d="M407.851,416.624v2.941h1.438v-5.242C408.755,415.051,408.277,415.822,407.851,416.624z"/>
	<path fill="#74C7A4" d="M409.288,414.323v5.242h1.438v-6.96C410.216,413.151,409.73,413.719,409.288,414.323z"/>
	<path fill="#718BC6" d="M412.163,411.203v8.362h1.438v-9.482C413.104,410.435,412.622,410.805,412.163,411.203z"/>
	<path fill="#68A4D9" d="M410.726,412.605v6.96h1.438v-8.362C411.657,411.642,411.183,412.115,410.726,412.605z"/>
</g>
</svg>
