<?xml version="1.0" encoding="utf-8"?>
<!-- Generator: Adobe Illustrator 15.0.0, SVG Export Plug-In . SVG Version: 6.00 Build 0)  -->
<!DOCTYPE svg PUBLIC "-//W3C//DTD SVG 1.1//EN" "http://www.w3.org/Graphics/SVG/1.1/DTD/svg11.dtd">
<svg version="1.1" id="Layer_1" xmlns="http://www.w3.org/2000/svg" xmlns:xlink="http://www.w3.org/1999/xlink" x="0px" y="0px"
	 width="850.39px" height="850.39px" viewBox="0 0 850.39 850.39" enable-background="new 0 0 850.39 850.39" xml:space="preserve">
<circle fill="#4F759E" cx="424.632" cy="425.387" r="18.87"/>
<path fill="#FFFFFF" d="M429.446,424.854c0.789-0.276,1.393-0.646,1.801-1.12c0.618-0.704,0.926-1.552,0.926-2.54
	c0-1.179-0.432-2.167-1.296-2.964c-0.863-0.798-2.101-1.198-3.71-1.198h-9.674v16.709h8.915c0.382,0,1.151-0.077,2.313-0.229
	c0.875-0.113,1.529-0.295,1.965-0.545c0.696-0.404,1.248-0.948,1.653-1.641c0.4-0.693,0.603-1.471,0.603-2.338
	c0-1.063-0.283-1.945-0.848-2.648C431.526,425.635,430.647,425.141,429.446,424.854z M422.697,420.416h2.287
	c0.782,0,1.335,0.136,1.649,0.412c0.315,0.272,0.475,0.654,0.475,1.14c0,0.526-0.159,0.926-0.475,1.206
	c-0.314,0.276-0.879,0.417-1.685,0.417h-2.252V420.416z M427.214,429.673c-0.366,0.315-0.992,0.475-1.883,0.475h-2.634v-3.384h2.622
	c0.906,0,1.54,0.152,1.901,0.451c0.362,0.299,0.541,0.695,0.541,1.189C427.762,428.938,427.579,429.357,427.214,429.673z"/>
</svg>
