<?xml version="1.0" encoding="utf-8"?>
<!-- Generator: Adobe Illustrator 15.0.0, SVG Export Plug-In . SVG Version: 6.00 Build 0)  -->
<!DOCTYPE svg PUBLIC "-//W3C//DTD SVG 1.1//EN" "http://www.w3.org/Graphics/SVG/1.1/DTD/svg11.dtd">
<svg version="1.1" id="Layer_1" xmlns="http://www.w3.org/2000/svg" xmlns:xlink="http://www.w3.org/1999/xlink" x="0px" y="0px"
	 width="700.39px" height="850.39px" viewBox="0 0 700.39 850.39" enable-background="new 0 0 700.39 850.39" xml:space="preserve">
<g>
	<polygon fill="#DF2A28" points="583,268 425.5,268 268,268 236,687 425.5,687 615,687 	"/>
</g>
<g>
	<polygon fill="#E03C45" points="568,644 568,300 554,644 	"/>
</g>
<g>
	<polygon fill="#C92928" points="563.5,635.5 439,635.5 412,635.5 287.5,635.5 236,687 412,687 439,687 615,687 	"/>
</g>
<g>
	<polygon fill="#C92928" points="279,644 279,300 293,644 	"/>
</g>
<g>
	<circle fill="#C92928" cx="336.372" cy="332" r="26"/>
</g>
<g>
	<circle fill="#C92928" cx="514.627" cy="332" r="26"/>
</g>
<g>
	<path fill="#231F20" d="M514.627,347c-8.284,0-15-6.716-15-15v-65.366c0-40.874-33.254-74.127-74.127-74.127
		c-40.874,0-74.127,33.253-74.127,74.127V332c0,8.284-6.716,15-15,15s-15-6.716-15-15v-65.366
		c0-57.416,46.711-104.127,104.127-104.127c57.417,0,104.127,46.711,104.127,104.127V332C529.627,340.284,522.911,347,514.627,347z"
		/>
</g>
</svg>
