<?xml version="1.0" standalone="no"?>
<!DOCTYPE svg PUBLIC "-//W3C//DTD SVG 20010904//EN"
 "http://www.w3.org/TR/2001/REC-SVG-20010904/DTD/svg10.dtd">
<svg version="1.0" xmlns="http://www.w3.org/2000/svg"
 width="1245.000000pt" height="1245.000000pt" viewBox="0 0 1245.000000 1245.000000"
 preserveAspectRatio="xMidYMid meet">
<metadata>
Created by potrace 1.11, written by Peter Selinger 2001-2013
</metadata>
<g transform="translate(0.000000,1245.000000) scale(0.100000,-0.100000)"
fill="#000000" stroke="none">
<path d="M0 6225 l0 -6115 102 0 c1335 -3 12332 1 12335 4 3 3 7 11887 3
12184 l0 42 -6220 0 -6220 0 0 -6115z m12416 1 l-1 -6091 -6195 0 -6195 0 -1
6085 c0 3347 1 6088 2 6091 2 4 2791 7 6198 7 l6193 -1 -1 -6091z"/>
<path d="M3223 10614 c-3 -8 -1 -20 5 -26 8 -8 9 -5 6 10 -4 14 0 22 13 25 17
4 17 5 0 6 -10 0 -20 -6 -24 -15z"/>
<path d="M5985 10624 c-87 -23 -120 -47 -150 -111 -10 -20 -24 -34 -35 -34
-31 -2 -33 -3 -70 -25 -48 -28 -124 -119 -151 -179 -12 -28 -32 -90 -45 -140
-20 -79 -23 -110 -20 -250 2 -88 8 -172 14 -186 6 -14 13 -53 17 -87 3 -33 10
-74 15 -91 5 -17 9 -34 10 -36 4 -27 -77 -127 -123 -151 -49 -26 -121 -84
-153 -125 -36 -44 -48 -116 -46 -267 1 -83 9 -115 56 -229 14 -35 26 -77 26
-95 l-1 -33 -15 25 c-10 17 -13 18 -9 5 16 -47 17 -58 4 -115 l-13 -59 -24 39
c-13 22 -25 40 -28 40 -5 0 13 -33 52 -95 13 -20 49 -155 62 -230 5 -26 2 -54
-7 -80 -9 -25 -15 -83 -16 -150 -1 -85 -7 -124 -24 -175 -21 -58 -30 -167 -17
-188 2 -4 7 -32 11 -62 4 -30 20 -94 36 -141 16 -47 31 -96 34 -108 5 -28 -13
-57 -51 -82 -29 -19 -62 -13 -96 18 -24 22 -23 10 4 -31 41 -62 101 -90 156
-72 34 11 27 -4 -36 -74 -134 -151 -230 -294 -259 -385 -57 -185 -69 -297 -43
-400 57 -219 163 -326 370 -371 19 -4 42 -9 50 -11 20 -5 53 -10 130 -17 36
-4 76 -9 90 -11 14 -2 45 -6 70 -10 128 -18 273 -88 354 -170 34 -34 66 -69
71 -79 13 -23 46 -15 60 14 65 129 65 130 93 124 15 -4 54 -17 86 -30 33 -13
65 -24 73 -24 25 0 13 -37 -24 -71 -83 -76 -178 -149 -195 -149 -10 0 -18 -4
-18 -8 0 -9 -70 -31 -115 -37 -61 -8 -131 -27 -172 -46 -32 -15 -47 -32 -67
-73 -14 -29 -26 -60 -26 -69 0 -10 -4 -17 -10 -17 -5 0 -10 -5 -10 -11 0 -10
-83 -150 -103 -174 -5 -5 -47 -62 -93 -125 -77 -103 -84 -115 -68 -127 9 -7
21 -10 25 -7 4 2 33 39 64 82 30 42 78 106 105 142 28 35 50 67 50 70 0 9 52
70 59 70 12 0 2 -94 -12 -117 -5 -7 -6 -13 -3 -13 4 0 -33 -75 -80 -167 -80
-155 -86 -170 -82 -214 4 -37 15 -61 47 -103 62 -81 248 -225 271 -211 5 3 -4
41 -20 84 -16 44 -36 107 -43 140 -14 60 -14 61 16 113 16 29 49 76 72 103 23
28 67 84 97 125 77 104 149 193 223 275 149 166 232 238 338 294 32 17 71 40
86 51 16 10 31 17 35 13 3 -3 6 -2 6 4 0 23 150 35 158 12 2 -5 8 -7 13 -4 9
6 147 -32 164 -45 9 -7 75 -27 117 -35 22 -5 59 -24 80 -43 16 -14 16 -17 -11
-51 -132 -169 -245 -433 -377 -886 -31 -104 -60 -195 -65 -201 -5 -6 -6 -13
-4 -16 3 -3 -5 -36 -19 -74 -21 -58 -49 -153 -48 -161 0 -1 -8 -26 -19 -55
-11 -29 -21 -57 -23 -63 -9 -43 -87 -223 -121 -280 -23 -38 -48 -87 -56 -107
-7 -21 -17 -38 -21 -38 -4 0 -8 -7 -8 -15 0 -8 -4 -15 -10 -15 -5 0 -10 -6
-10 -14 0 -12 -14 -22 -38 -27 -9 -2 -92 -59 -110 -77 -8 -7 -29 -24 -47 -38
-43 -33 -53 -59 -80 -219 -2 -16 -9 -45 -14 -63 -5 -18 -10 -33 -9 -35 1 -5
-23 -95 -39 -147 -10 -30 -18 -57 -18 -60 -8 -40 -20 -81 -32 -104 -9 -17 -19
-42 -24 -58 -6 -23 -5 -28 11 -28 14 0 25 18 45 73 15 39 30 81 35 92 5 11 15
43 24 70 22 73 62 184 68 191 13 12 25 -84 23 -176 -2 -72 -8 -114 -28 -172
-27 -79 -40 -168 -25 -168 5 0 7 -4 3 -9 -7 -12 43 -50 120 -91 33 -18 69 -41
80 -51 32 -28 154 -80 202 -86 37 -4 43 -2 43 14 0 10 -16 35 -34 55 -19 21
-55 72 -82 114 l-47 77 21 41 c12 23 22 49 22 59 0 10 7 32 17 50 9 18 22 55
30 82 8 28 16 57 18 65 3 8 20 74 38 145 72 276 112 396 192 570 68 149 161
333 216 430 34 61 81 144 104 185 23 41 51 92 63 113 12 20 31 54 43 75 12 20
27 44 35 53 8 8 14 18 14 22 0 3 14 30 31 59 86 144 234 398 254 433 12 22 39
72 60 110 20 39 43 77 50 85 6 8 15 22 19 30 8 17 20 37 57 95 36 55 81 146
76 151 -2 3 -10 -9 -17 -25 -7 -17 -18 -35 -26 -42 -11 -9 -11 -5 -4 22 5 17
7 36 4 41 -3 5 -1 14 4 21 5 7 12 21 14 32 5 18 6 18 16 -5 10 -20 11 -7 6 65
-7 110 -16 126 -147 256 -108 107 -96 97 -228 195 -88 66 -115 94 -91 94 4 0
21 13 37 28 17 15 50 43 75 62 25 19 47 37 50 41 7 9 79 68 120 99 187 139
383 346 440 465 8 17 16 34 19 39 2 5 -1 6 -7 2 -14 -9 -15 4 -3 37 6 16 6 46
-2 84 -13 69 -32 88 -98 98 -24 4 -47 8 -50 11 -11 6 -176 15 -299 16 -127 1
-289 -12 -365 -29 -19 -4 -50 -8 -145 -18 -59 -6 -109 -14 -140 -20 -14 -3
-59 -8 -100 -10 -41 -2 -95 -8 -120 -14 -92 -21 -495 -32 -640 -18 -36 3 -86
6 -112 7 -71 0 -101 30 -100 98 2 83 12 100 198 352 53 72 145 247 159 303 7
26 15 31 42 28 10 -1 36 4 113 23 34 9 107 40 132 58 14 10 33 18 42 18 8 0
19 7 24 16 8 15 12 15 41 0 17 -10 63 -37 101 -61 38 -25 71 -45 74 -45 3 0
37 -20 76 -45 39 -25 74 -45 79 -45 5 0 11 -4 13 -8 2 -5 30 -23 62 -42 33
-18 67 -41 76 -50 29 -29 159 -62 249 -64 46 0 90 3 97 9 19 13 32 63 29 107
-2 36 -44 159 -77 221 -5 10 -26 62 -47 115 -21 53 -59 146 -85 205 -26 59
-48 117 -49 127 -1 11 -4 20 -8 20 -4 0 -17 28 -30 63 -34 93 -165 343 -238
457 -9 14 -25 42 -36 63 -11 20 -23 37 -27 37 -5 0 -8 7 -8 15 0 8 -4 15 -10
15 -5 0 -17 9 -27 19 -19 21 -65 45 -157 86 l-59 25 22 24 c20 21 39 76 26 76
-3 0 -16 -11 -28 -25 -25 -29 -64 -39 -100 -26 -25 10 -26 12 -43 123 -3 23 2
59 12 92 l17 54 34 -20 c40 -24 88 -16 107 17 6 10 17 25 24 33 17 19 15 24
-5 14 -25 -13 -60 -6 -85 18 -17 16 -20 26 -15 62 9 62 18 102 22 107 2 2 32
5 67 8 70 5 71 5 75 34 3 17 0 18 -16 9 -11 -5 -22 -14 -25 -19 -7 -11 -63 1
-94 20 -36 23 -55 76 -55 154 1 75 17 117 79 205 17 25 50 82 73 128 23 45 46
82 53 82 6 0 9 2 6 5 -3 3 0 22 7 42 11 32 11 129 0 160 -9 27 -92 74 -173 99
-66 20 -113 27 -198 29 -77 2 -122 8 -141 19 -122 66 -181 89 -238 92 -33 2
-96 5 -140 8 -44 3 -89 3 -100 0z m615 -1693 c6 9 16 4 39 -20 35 -37 42 -68
14 -56 -10 5 -37 13 -59 19 l-42 11 16 30 c10 19 17 25 20 16 4 -11 6 -11 12
0z m-5 -156 c17 -12 38 -24 48 -28 9 -4 16 -12 15 -18 -2 -6 3 -14 10 -16 6
-3 12 0 12 6 0 7 12 9 33 6 245 -41 242 -40 306 -200 41 -102 91 -238 157
-425 34 -98 56 -197 37 -175 -4 6 -16 15 -25 20 -94 54 -279 196 -271 207 3 6
2 8 -4 5 -16 -10 -89 64 -213 213 -25 30 -65 76 -89 102 l-44 48 50 0 c56 0
85 19 103 65 16 41 -2 46 -58 18 -26 -13 -55 -22 -66 -21 -46 7 -74 98 -59
193 6 37 8 37 58 0z"/>
<path d="M3292 10615 c3 -3 41 -14 84 -25 44 -10 88 -22 99 -25 16 -5 17 -4 5
3 -14 9 -167 52 -186 52 -4 0 -5 -2 -2 -5z"/>
<path d="M3506 10561 c12 -11 84 -34 89 -29 3 2 -18 12 -47 21 -28 9 -47 12
-42 8z"/>
<path d="M3230 10519 c0 -22 4 -38 8 -35 8 5 4 76 -4 76 -2 0 -4 -18 -4 -41z"/>
<path d="M3614 10521 c3 -5 18 -11 33 -14 16 -3 37 -9 48 -13 11 -4 17 -4 13
0 -9 11 -100 37 -94 27z"/>
<path d="M3730 10480 c8 -5 22 -9 30 -9 10 0 8 3 -5 9 -27 12 -43 12 -25 0z"/>
<path d="M3242 10435 c0 -16 2 -22 5 -12 2 9 2 23 0 30 -3 6 -5 -1 -5 -18z"/>
<path d="M3820 10450 c8 -5 20 -10 25 -10 6 0 3 5 -5 10 -8 5 -19 10 -25 10
-5 0 -3 -5 5 -10z"/>
<path d="M3860 10437 c0 -3 15 -10 32 -16 18 -6 28 -7 23 -2 -12 10 -55 25
-55 18z"/>
<path d="M3940 10400 c8 -5 20 -10 25 -10 6 0 3 5 -5 10 -8 5 -19 10 -25 10
-5 0 -3 -5 5 -10z"/>
<path d="M3250 10371 c0 -17 4 -32 8 -35 4 -2 6 11 4 30 -5 42 -12 45 -12 5z"/>
<path d="M4000 10375 c14 -8 30 -14 35 -14 6 0 -1 6 -15 14 -14 8 -29 14 -35
14 -5 0 1 -6 15 -14z"/>
<path d="M4050 10356 c0 -2 7 -7 16 -10 8 -3 12 -2 9 4 -6 10 -25 14 -25 6z"/>
<path d="M4091 10336 c10 -9 159 -74 159 -70 0 6 -144 74 -156 74 -4 0 -5 -2
-3 -4z"/>
<path d="M3261 10304 c0 -11 3 -14 6 -6 3 7 2 16 -1 19 -3 4 -6 -2 -5 -13z"/>
<path d="M3271 10268 c-1 -24 38 -126 51 -134 5 -4 4 4 -3 17 -7 13 -21 49
-30 79 -10 30 -18 47 -18 38z"/>
<path d="M4260 10256 c0 -2 7 -7 16 -10 8 -3 12 -2 9 4 -6 10 -25 14 -25 6z"/>
<path d="M4315 10227 c38 -25 135 -78 135 -74 0 6 -139 87 -148 87 -4 0 2 -6
13 -13z"/>
<path d="M4460 10146 c0 -2 24 -19 53 -38 72 -46 87 -53 53 -26 -37 28 -106
71 -106 64z"/>
<path d="M3340 10106 c8 -11 32 -32 53 -47 25 -18 33 -29 25 -33 -7 -4 -3 -4
10 -2 12 2 22 1 22 -3 0 -16 296 -124 401 -146 86 -18 242 -28 234 -15 -3 5
-13 7 -23 5 -37 -7 -206 17 -289 41 -174 50 -347 130 -418 193 -16 14 -23 17
-15 7z"/>
<path d="M4600 10056 c0 -2 8 -10 18 -17 15 -13 16 -12 3 4 -13 16 -21 21 -21
13z"/>
<path d="M3368 10033 c6 -2 18 -2 25 0 6 3 1 5 -13 5 -14 0 -19 -2 -12 -5z"/>
<path d="M3342 10000 c0 -19 2 -27 5 -17 2 9 2 25 0 35 -3 9 -5 1 -5 -18z"/>
<path d="M4640 10026 c0 -2 8 -10 18 -17 15 -13 16 -12 3 4 -13 16 -21 21 -21
13z"/>
<path d="M4694 9981 c20 -22 26 -25 26 -13 0 4 -10 13 -22 21 -23 14 -23 14
-4 -8z"/>
<path d="M3352 9945 c0 -11 4 -31 8 -45 6 -20 8 -21 8 -5 0 11 -4 31 -8 45 -6
20 -8 21 -8 5z"/>
<path d="M4730 9957 c0 -2 15 -16 33 -33 l32 -29 -29 33 c-28 30 -36 37 -36
29z"/>
<path d="M4840 9846 c19 -23 46 -54 58 -71 14 -18 19 -21 13 -8 -6 12 -32 44
-58 71 -34 34 -38 37 -13 8z"/>
<path d="M3372 9860 c0 -8 4 -26 8 -40 6 -20 8 -21 8 -5 0 11 -3 29 -8 40 -5
12 -8 14 -8 5z"/>
<path d="M3401 9750 c0 -8 4 -22 9 -30 12 -18 12 -2 0 25 -6 13 -9 15 -9 5z"/>
<path d="M4933 9715 c9 -16 23 -39 32 -50 9 -11 7 -2 -6 20 -27 49 -47 72 -26
30z"/>
<path d="M3420 9697 c0 -11 39 -97 44 -97 3 0 -4 21 -15 47 -20 46 -29 62 -29
50z"/>
<path d="M4680 9694 c0 -5 7 -18 15 -28 8 -11 15 -16 15 -10 0 5 -7 18 -15 28
-8 11 -15 16 -15 10z"/>
<path d="M4746 9580 c20 -33 40 -63 45 -66 5 -3 -8 22 -27 56 -20 33 -40 63
-45 66 -5 3 8 -22 27 -56z"/>
<path d="M5001 9603 c11 -24 22 -43 24 -43 8 0 -8 38 -26 60 -18 23 -18 22 2
-17z"/>
<path d="M3485 9572 c12 -14 19 -37 19 -60 -1 -35 -1 -35 3 -4 5 36 15 39 68
16 21 -8 108 -34 194 -56 131 -33 171 -40 251 -39 95 1 307 25 318 36 6 5 -78
-2 -128 -11 -14 -3 -81 -8 -150 -11 -117 -5 -133 -3 -250 26 -69 18 -141 37
-160 43 -94 30 -147 51 -165 66 -20 17 -20 17 0 -6z"/>
<path d="M5045 9526 c10 -14 19 -26 22 -26 7 0 -17 39 -28 46 -6 3 -3 -5 6
-20z"/>
<path d="M4806 9488 c26 -44 97 -148 100 -148 3 0 1 6 -3 13 -56 88 -96 147
-99 147 -3 0 -2 -6 2 -12z"/>
<path d="M5093 9445 c9 -16 23 -39 32 -50 9 -11 7 -2 -6 20 -27 49 -47 72 -26
30z"/>
<path d="M3512 9445 c0 -11 3 -29 8 -40 11 -25 11 1 0 35 -6 20 -8 21 -8 5z"/>
<path d="M3536 9358 c13 -43 23 -68 28 -68 3 0 -2 20 -11 45 -15 45 -31 65
-17 23z"/>
<path d="M5150 9350 c6 -11 13 -20 16 -20 2 0 0 9 -6 20 -6 11 -13 20 -16 20
-2 0 0 -9 6 -20z"/>
<path d="M4929 9298 c12 -18 40 -66 62 -105 44 -79 63 -99 28 -30 -28 54 -99
167 -106 167 -3 0 5 -15 16 -32z"/>
<path d="M5180 9300 c6 -11 13 -20 16 -20 2 0 0 9 -6 20 -6 11 -13 20 -16 20
-2 0 0 -9 6 -20z"/>
<path d="M3570 9274 c0 -6 7 -19 16 -30 14 -18 14 -18 3 6 -14 31 -19 36 -19
24z"/>
<path d="M5215 9240 c9 -16 18 -30 21 -30 2 0 -2 14 -11 30 -9 17 -18 30 -21
30 -2 0 2 -13 11 -30z"/>
<path d="M3610 9200 c6 -11 13 -20 16 -20 2 0 0 9 -6 20 -6 11 -13 20 -16 20
-2 0 0 -9 6 -20z"/>
<path d="M3647 9145 c12 -16 34 -41 49 -55 19 -17 15 -10 -10 20 -53 61 -63
71 -39 35z"/>
<path d="M5040 9109 c0 -4 7 -22 15 -40 8 -19 14 -27 14 -19 0 14 -28 72 -29
59z"/>
<path d="M3734 9061 c7 -11 46 -35 46 -28 0 3 -12 12 -26 22 -15 9 -23 12 -20
6z"/>
<path d="M3797 9019 c7 -7 15 -10 18 -7 3 3 -2 9 -12 12 -14 6 -15 5 -6 -5z"/>
<path d="M5070 9021 c0 -6 4 -13 10 -16 6 -3 7 1 4 9 -7 18 -14 21 -14 7z"/>
<path d="M4656 9008 c3 -5 10 -6 15 -3 13 9 11 12 -6 12 -8 0 -12 -4 -9 -9z"/>
<path d="M4696 9011 c9 -9 34 -9 34 -1 0 5 -9 8 -20 7 -10 -1 -17 -3 -14 -6z"/>
<path d="M3840 9000 c8 -5 20 -10 25 -10 6 0 3 5 -5 10 -8 5 -19 10 -25 10 -5
0 -3 -5 5 -10z"/>
<path d="M4528 9003 c12 -2 32 -2 45 0 12 2 2 4 -23 4 -25 0 -35 -2 -22 -4z"/>
<path d="M4753 9003 c9 -2 25 -2 35 0 9 3 1 5 -18 5 -19 0 -27 -2 -17 -5z"/>
<path d="M4818 8998 c6 -6 18 -8 28 -6 14 3 12 5 -9 10 -19 3 -25 2 -19 -4z"/>
<path d="M4430 8992 c0 -4 16 -6 35 -4 19 2 35 6 35 8 0 2 -16 4 -35 4 -19 0
-35 -4 -35 -8z"/>
<path d="M3905 8975 c17 -8 41 -14 55 -14 15 0 5 6 -25 14 -62 17 -69 17 -30
0z"/>
<path d="M4335 8983 c-11 -3 -24 -9 -30 -15 -6 -6 -4 -7 6 -3 10 4 39 10 65
15 41 6 43 8 14 8 -19 0 -44 -2 -55 -5z"/>
<path d="M4885 8980 c11 -5 27 -9 35 -9 9 0 8 4 -5 9 -11 5 -27 9 -35 9 -9 0
-8 -4 5 -9z"/>
<path d="M5083 8955 c0 -22 2 -30 4 -17 2 12 2 30 0 40 -3 9 -5 -1 -4 -23z"/>
<path d="M4258 8963 c6 -2 18 -2 25 0 6 3 1 5 -13 5 -14 0 -19 -2 -12 -5z"/>
<path d="M4941 8966 c12 -11 88 -43 83 -35 -3 5 -21 16 -41 24 -35 15 -51 19
-42 11z"/>
<path d="M3990 8957 c14 -14 164 -27 182 -15 8 4 -10 8 -42 8 -30 1 -75 4
-100 7 -25 3 -43 3 -40 0z"/>
<path d="M4203 8953 c9 -2 23 -2 30 0 6 3 -1 5 -18 5 -16 0 -22 -2 -12 -5z"/>
<path d="M4025 8920 c-28 -7 -28 -8 -5 -9 14 0 32 4 40 9 17 11 8 11 -35 0z"/>
<path d="M5072 8895 c20 -14 40 -25 45 -25 4 0 -9 11 -29 25 -20 14 -40 25
-45 25 -4 0 9 -11 29 -25z"/>
<path d="M3910 8898 c-25 -6 -40 -12 -35 -14 6 -2 35 3 65 10 64 16 37 19 -30
4z"/>
<path d="M3828 8873 c6 -2 18 -2 25 0 6 3 1 5 -13 5 -14 0 -19 -2 -12 -5z"/>
<path d="M3730 8855 c-25 -7 -38 -13 -30 -14 8 0 38 6 65 13 28 8 41 14 30 14
-11 0 -40 -6 -65 -13z"/>
<path d="M5132 8850 c9 -6 36 -32 59 -58 23 -26 36 -38 29 -27 -24 35 -84 95
-95 95 -5 0 -2 -5 7 -10z"/>
<path d="M3605 8825 c-54 -17 -33 -18 30 -1 28 8 41 14 30 14 -11 0 -38 -5
-60 -13z"/>
<path d="M3520 8801 c0 -5 8 -15 18 -22 15 -13 16 -12 4 3 -10 13 -10 17 0 21
8 4 7 6 -4 6 -10 1 -18 -3 -18 -8z"/>
<path d="M4928 8768 c6 -6 18 -8 28 -6 14 3 12 5 -9 10 -19 3 -25 2 -19 -4z"/>
<path d="M3561 8743 c7 -12 15 -20 18 -17 3 2 -3 12 -13 22 -17 16 -18 16 -5
-5z"/>
<path d="M5015 8735 c22 -13 48 -29 58 -35 9 -6 17 -9 17 -6 0 7 -93 66 -104
66 -6 0 7 -11 29 -25z"/>
<path d="M5230 8736 c0 -2 8 -10 18 -17 15 -13 16 -12 3 4 -13 16 -21 21 -21
13z"/>
<path d="M5260 8695 c0 -5 10 -21 21 -35 13 -17 17 -18 10 -5 -17 33 -31 51
-31 40z"/>
<path d="M3620 8676 c0 -2 8 -10 18 -17 15 -13 16 -12 3 4 -13 16 -21 21 -21
13z"/>
<path d="M5100 8676 c0 -2 8 -10 18 -17 15 -13 16 -12 3 4 -13 16 -21 21 -21
13z"/>
<path d="M3660 8646 c0 -2 14 -14 30 -26 17 -12 30 -19 30 -16 0 2 -13 14 -30
26 -16 12 -30 19 -30 16z"/>
<path d="M4340 8620 c-88 -49 -226 -92 -297 -93 -7 0 -13 -4 -13 -8 0 -4 -18
-10 -39 -14 -22 -3 -47 -13 -58 -21 -17 -14 -17 -15 2 -6 11 6 64 19 117 31
53 11 118 28 145 37 42 14 181 79 192 90 11 10 -18 1 -49 -16z"/>
<path d="M5195 8578 c22 -27 41 -48 43 -48 7 0 -36 56 -59 75 -12 11 -5 -1 16
-27z"/>
<path d="M3744 8586 c11 -9 24 -16 30 -16 12 0 7 5 -24 19 -24 11 -24 11 -6
-3z"/>
<path d="M3800 8562 c8 -5 26 -13 40 -16 17 -5 20 -4 10 2 -8 5 -26 13 -40 16
-17 5 -20 4 -10 -2z"/>
<path d="M3890 8530 c25 -8 97 -13 89 -6 -2 2 -29 6 -59 9 -36 4 -46 3 -30 -3z"/>
<path d="M3998 8523 c7 -3 16 -2 19 1 4 3 -2 6 -13 5 -11 0 -14 -3 -6 -6z"/>
<path d="M3965 8421 c22 -23 49 -47 60 -53 11 -6 18 -9 15 -6 -3 2 -30 26 -60
53 -54 49 -54 49 -15 6z"/>
<path d="M4660 8419 c-55 -46 -218 -109 -321 -124 -46 -7 -56 -11 -47 -20 6
-6 178 38 226 57 85 34 207 109 176 108 -5 -1 -20 -10 -34 -21z"/>
<path d="M4055 8350 c3 -5 26 -20 50 -34 25 -14 43 -21 40 -16 -3 5 -26 20
-50 34 -25 14 -43 21 -40 16z"/>
<path d="M4170 8290 c8 -5 20 -10 25 -10 6 0 3 5 -5 10 -8 5 -19 10 -25 10 -5
0 -3 -5 5 -10z"/>
<path d="M4228 8273 c12 -3 20 -8 17 -13 -3 -4 4 -6 15 -3 33 9 23 20 -17 20
-21 0 -28 -2 -15 -4z"/>
<path d="M4280 8196 c25 -26 54 -52 65 -58 11 -6 18 -9 15 -6 -3 2 -32 29 -65
58 l-60 54 45 -48z"/>
<path d="M5113 8213 c9 -2 23 -2 30 0 6 3 -1 5 -18 5 -16 0 -22 -2 -12 -5z"/>
<path d="M5209 8207 c5 -5 19 -7 32 -5 20 3 19 5 -9 9 -20 3 -29 2 -23 -4z"/>
<path d="M5024 8194 c-19 -15 -19 -15 1 -6 11 5 27 12 35 15 13 5 13 6 -1 6
-8 1 -24 -6 -35 -15z"/>
<path d="M5280 8200 c8 -5 24 -10 34 -10 26 0 18 6 -19 14 -22 5 -26 4 -15 -4z"/>
<path d="M4966 8165 c-11 -8 -15 -15 -10 -15 6 0 19 7 30 15 10 8 15 14 9 14
-5 0 -19 -6 -29 -14z"/>
<path d="M4910 8140 c-8 -5 -10 -10 -5 -10 6 0 17 5 25 10 8 5 11 10 5 10 -5
0 -17 -5 -25 -10z"/>
<path d="M4375 8120 c3 -4 14 -10 25 -13 11 -3 18 -2 15 3 -3 4 -14 10 -25 13
-11 3 -18 2 -15 -3z"/>
<path d="M4840 8115 c-19 -7 -28 -14 -20 -14 8 0 29 6 45 14 39 17 21 18 -25
0z"/>
<path d="M4445 8090 c11 -5 29 -8 40 -8 16 0 15 2 -5 8 -34 11 -60 11 -35 0z"/>
<path d="M4775 8090 c-3 -6 1 -7 9 -4 18 7 21 14 7 14 -6 0 -13 -4 -16 -10z"/>
<path d="M4728 8083 c6 -2 18 -2 25 0 6 3 1 5 -13 5 -14 0 -19 -2 -12 -5z"/>
<path d="M4523 8073 c9 -2 23 -2 30 0 6 3 -1 5 -18 5 -16 0 -22 -2 -12 -5z"/>
<path d="M4576 8068 c3 -5 10 -6 15 -3 13 9 11 12 -6 12 -8 0 -12 -4 -9 -9z"/>
<path d="M4648 8073 c12 -2 32 -2 45 0 12 2 2 4 -23 4 -25 0 -35 -2 -22 -4z"/>
</g>
</svg>
