<?xml version="1.0" standalone="no"?>
<!DOCTYPE svg PUBLIC "-//W3C//DTD SVG 20010904//EN"
 "http://www.w3.org/TR/2001/REC-SVG-20010904/DTD/svg10.dtd">
<svg version="1.0" xmlns="http://www.w3.org/2000/svg"
 width="922.000000pt" height="922.000000pt" viewBox="0 0 922.000000 922.000000"
 preserveAspectRatio="xMidYMid meet">
<metadata>
Created by potrace 1.11, written by Peter Selinger 2001-2013
</metadata>
<g transform="translate(0.000000,922.000000) scale(0.100000,-0.100000)"
fill="#000000" stroke="none">
<path d="M1603 8645 c-3 -9 -3 -19 1 -22 3 -4 6 1 6 10 0 8 10 18 23 20 l22 4
-23 2 c-12 0 -25 -6 -29 -14z"/>
<path d="M4328 8645 c-50 -16 -118 -83 -118 -117 0 -12 -8 -18 -22 -19 -44 -1
-59 -8 -105 -45 -60 -49 -131 -149 -138 -194 0 -3 -3 -9 -6 -15 -4 -5 -10 -26
-15 -45 -4 -19 -8 -37 -9 -40 -23 -97 -27 -138 -22 -259 4 -125 7 -151 21
-199 3 -9 8 -42 11 -72 4 -30 10 -74 15 -98 6 -37 4 -48 -20 -86 -28 -44 -87
-96 -108 -96 -7 0 -12 -4 -12 -8 0 -4 -13 -15 -28 -24 -37 -22 -96 -79 -111
-107 -12 -22 -13 -22 -27 -4 -13 15 -13 13 0 -13 8 -17 12 -34 9 -38 -10 -10
-13 -40 -14 -162 -1 -116 5 -143 56 -264 14 -33 25 -74 25 -92 l-1 -33 -17 35
c-24 47 -71 120 -77 120 -3 0 9 -24 28 -52 56 -89 61 -109 47 -183 l-12 -66
-19 30 c-10 17 -21 31 -24 31 -3 0 8 -21 24 -47 27 -45 65 -168 80 -258 4 -25
1 -55 -8 -80 -8 -24 -15 -87 -17 -155 -2 -90 -8 -130 -26 -183 -20 -56 -23
-78 -17 -130 14 -128 21 -164 50 -248 39 -112 41 -128 24 -152 -37 -52 -82
-62 -134 -28 l-24 15 23 -36 c42 -64 103 -92 158 -74 12 4 22 4 22 -1 0 -4
-30 -42 -67 -83 -121 -135 -225 -293 -250 -375 -52 -172 -68 -292 -50 -370 5
-22 10 -47 12 -55 8 -39 57 -144 85 -184 67 -93 209 -160 380 -181 30 -3 66
-8 80 -10 14 -2 50 -7 80 -10 128 -13 187 -30 298 -83 71 -34 156 -105 199
-166 30 -44 54 -29 94 59 33 73 35 75 64 69 17 -3 44 -12 60 -19 17 -7 47 -19
69 -27 44 -15 54 -31 35 -55 -31 -37 -204 -173 -221 -173 -10 0 -18 -4 -18 -8
0 -8 -68 -29 -115 -35 -16 -2 -37 -6 -45 -10 -8 -3 -31 -8 -50 -11 -72 -13
-116 -43 -144 -100 -14 -29 -26 -57 -26 -62 0 -11 -87 -160 -115 -196 -11 -14
-29 -38 -40 -53 -137 -188 -144 -199 -134 -211 16 -20 32 -8 85 64 26 37 51
69 55 72 13 11 149 203 149 211 0 5 7 9 15 9 15 0 15 -14 0 -95 -3 -16 -44
-105 -90 -198 -91 -180 -99 -210 -68 -274 16 -35 146 -173 161 -173 5 0 23
-13 41 -29 45 -41 95 -64 99 -47 1 7 -11 53 -27 102 -16 49 -33 104 -36 123
-3 19 -8 38 -11 42 -8 14 99 176 146 219 3 3 23 30 45 60 35 49 166 212 224
280 57 66 191 197 236 231 28 20 82 54 120 74 39 20 77 43 86 51 24 21 106 43
140 37 17 -2 63 -13 103 -24 39 -11 76 -21 81 -22 6 -2 19 -8 31 -15 11 -6 32
-13 45 -16 13 -2 36 -9 52 -15 15 -6 27 -7 27 -4 0 4 5 2 12 -5 7 -7 20 -12
30 -12 9 0 22 -8 27 -17 6 -10 11 -13 11 -8 0 6 4 4 9 -4 6 -9 -6 -34 -39 -80
-50 -68 -158 -269 -186 -344 -29 -76 -125 -352 -130 -372 -3 -11 -6 -24 -8
-30 -3 -11 -19 -65 -68 -225 -18 -58 -33 -112 -34 -120 -1 -8 -11 -40 -21 -70
-11 -30 -30 -89 -43 -130 -43 -143 -123 -345 -165 -415 -23 -38 -48 -87 -56
-107 -7 -21 -17 -38 -21 -38 -4 0 -8 -7 -8 -15 0 -8 -4 -15 -10 -15 -5 0 -10
-6 -10 -14 0 -12 -19 -26 -40 -30 -12 -3 -128 -88 -163 -120 -35 -33 -39 -42
-61 -153 -13 -65 -26 -128 -29 -139 -7 -27 -48 -185 -52 -199 -1 -5 -3 -12 -3
-15 0 -3 -16 -49 -36 -102 -33 -93 -35 -116 -7 -99 11 7 91 210 91 233 0 5 6
24 14 41 8 18 22 54 31 81 9 27 20 56 24 64 16 29 28 -41 26 -153 -1 -90 -7
-124 -28 -186 -27 -77 -40 -169 -25 -169 5 0 7 -4 3 -9 -6 -11 39 -47 100 -81
22 -13 52 -30 66 -39 14 -9 47 -29 72 -44 78 -48 190 -80 210 -61 6 7 -15 41
-50 80 -10 11 -23 29 -30 40 -6 10 -28 46 -49 78 l-37 59 22 42 c12 24 24 53
25 66 2 13 8 35 15 47 7 13 14 31 16 40 2 9 15 55 29 102 13 47 45 162 70 256
47 174 80 272 134 399 52 123 245 509 262 525 3 3 10 14 16 25 6 11 30 56 54
100 24 44 61 108 82 143 21 34 38 65 38 68 0 2 8 17 19 32 10 15 51 83 91 152
40 69 102 175 138 235 77 131 86 146 142 250 24 44 52 92 63 108 34 50 147
251 147 261 -1 6 -12 -9 -25 -34 l-25 -45 3 47 c2 26 6 51 10 54 4 4 7 16 7
26 0 10 5 18 10 18 6 0 10 -9 10 -21 0 -11 5 -17 10 -14 6 4 8 10 5 15 -3 4
-8 41 -11 82 -4 51 -13 83 -29 108 -42 66 -210 226 -327 313 -105 78 -135 107
-110 107 4 0 21 13 37 28 17 15 50 43 74 62 25 19 54 44 66 55 23 23 70 60
112 90 56 41 180 151 259 231 109 110 176 211 181 273 12 134 -13 211 -69 211
-24 0 -23 0 -60 11 -66 19 -311 27 -483 15 -109 -7 -122 -9 -200 -21 -88 -13
-172 -25 -215 -30 -25 -3 -56 -7 -70 -10 -14 -3 -57 -8 -96 -10 -39 -2 -98 -9
-132 -15 -115 -20 -483 -30 -642 -16 -36 3 -84 5 -107 6 -60 0 -97 34 -96 86
3 86 25 135 113 249 26 33 65 85 89 115 41 54 143 251 156 301 6 23 14 27 78
37 73 11 162 42 207 72 14 10 37 20 52 24 19 4 26 11 21 22 -6 16 98 -42 105
-58 2 -4 8 -8 14 -8 5 0 62 -32 126 -71 64 -39 131 -80 149 -90 49 -28 117
-73 123 -81 3 -4 46 -20 95 -36 68 -21 107 -28 160 -27 94 3 93 2 104 23 14
27 24 109 15 124 -5 7 -9 18 -10 23 -2 13 -52 140 -75 193 -11 23 -30 72 -44
108 -13 35 -32 81 -41 102 -9 20 -24 55 -34 77 -10 22 -25 57 -34 78 -10 21
-18 47 -19 57 -1 11 -4 20 -8 20 -3 0 -14 21 -24 48 -22 61 -137 296 -147 300
-5 2 -8 8 -8 12 0 5 -17 37 -37 72 -21 35 -46 77 -55 93 -10 17 -26 45 -35 63
-9 17 -20 32 -25 32 -4 0 -8 6 -8 14 0 8 -9 18 -20 21 -11 3 -20 10 -20 15 0
11 -52 40 -133 75 -37 15 -70 32 -73 37 -3 5 4 16 15 26 18 16 40 72 28 72 -3
0 -18 -13 -34 -29 -23 -23 -36 -28 -67 -26 -48 4 -52 9 -64 73 -11 63 -8 118
9 165 l12 34 34 -20 c40 -23 88 -15 107 18 6 10 17 25 24 33 6 7 12 16 12 19
0 3 -6 1 -12 -4 -16 -12 -72 -7 -76 7 -2 5 -7 8 -12 5 -5 -3 -12 4 -15 16 -10
29 16 168 29 163 6 -2 38 -1 70 3 52 7 60 11 61 31 2 20 0 21 -19 9 -39 -25
-65 -26 -98 -4 -56 39 -70 67 -72 147 -2 82 17 132 80 220 19 26 34 52 34 58
0 6 3 12 8 14 4 2 30 49 58 104 49 97 51 105 48 169 -4 80 -18 100 -98 139
-84 40 -159 57 -281 61 -76 2 -124 9 -142 19 -126 68 -177 88 -236 91 -34 2
-100 7 -147 9 -61 4 -98 2 -132 -9z m699 -1712 c28 -34 30 -58 6 -48 -10 5
-38 14 -63 21 -25 7 -39 13 -31 13 8 1 11 4 8 7 -3 4 -2 15 3 25 14 25 49 16
77 -18z m-21 -147 c17 -12 29 -27 27 -33 -6 -16 9 -17 23 -3 7 7 39 5 100 -5
111 -19 151 -32 175 -56 17 -17 79 -139 79 -155 0 -3 24 -72 54 -152 97 -262
138 -383 132 -389 -3 -3 -1 -14 5 -24 6 -12 6 -19 0 -19 -5 0 -11 3 -13 8 -1
4 -37 29 -78 57 -125 83 -210 149 -210 163 0 7 -4 11 -9 8 -13 -8 -102 82
-211 214 -25 29 -64 74 -87 99 l-42 46 54 5 c55 5 87 28 101 72 6 20 -18 47
-24 28 -2 -6 -9 -10 -16 -10 -7 0 -28 -7 -45 -16 -26 -13 -38 -14 -57 -6 -42
20 -55 76 -45 206 1 20 0 21 87 -38z"/>
<path d="M1745 8624 c50 -13 94 -22 100 -21 11 4 -158 47 -177 46 -7 0 28 -12
77 -25z"/>
<path d="M1608 8550 c2 -22 6 -40 8 -40 2 0 4 18 4 40 0 22 -3 40 -8 40 -4 0
-6 -18 -4 -40z"/>
<path d="M1898 8583 c7 -3 16 -2 19 1 4 3 -2 6 -13 5 -11 0 -14 -3 -6 -6z"/>
<path d="M1956 8565 c17 -7 44 -16 60 -20 25 -4 24 -3 -6 8 -19 8 -46 17 -60
20 -19 5 -17 3 6 -8z"/>
<path d="M2060 8532 c8 -5 26 -13 40 -16 17 -5 20 -4 10 2 -8 5 -26 13 -40 16
-17 5 -20 4 -10 -2z"/>
<path d="M2169 8489 c24 -11 46 -18 48 -15 4 4 -73 36 -85 35 -4 0 13 -9 37
-20z"/>
<path d="M1621 8463 c-1 -32 20 -126 31 -138 6 -6 7 -5 3 5 -3 9 -12 47 -19
85 -8 39 -15 60 -15 48z"/>
<path d="M2266 8451 c23 -10 52 -22 65 -25 13 -3 0 5 -30 19 -29 14 -59 25
-65 25 -6 0 7 -9 30 -19z"/>
<path d="M2380 8405 c14 -8 30 -14 35 -14 6 0 -1 6 -15 14 -14 8 -29 14 -35
14 -5 0 1 -6 15 -14z"/>
<path d="M2460 8370 c19 -11 40 -19 45 -19 6 0 -6 8 -25 19 -19 11 -39 19 -45
19 -5 0 6 -8 25 -19z"/>
<path d="M2521 8347 c13 -11 163 -87 165 -84 4 4 -150 87 -162 87 -4 0 -5 -2
-3 -3z"/>
<path d="M1650 8294 c0 -10 5 -26 10 -34 8 -11 9 -7 4 15 -8 37 -14 45 -14 19z"/>
<path d="M2700 8255 c0 -2 14 -10 30 -19 17 -8 46 -24 65 -36 19 -12 35 -19
35 -17 0 6 -88 61 -112 70 -10 3 -18 5 -18 2z"/>
<path d="M1671 8232 c-1 -14 27 -72 35 -72 2 0 -2 12 -9 28 -8 15 -17 34 -20
42 -4 10 -6 11 -6 2z"/>
<path d="M2864 8161 c7 -11 46 -35 46 -28 0 3 -12 12 -26 22 -15 9 -23 12 -20
6z"/>
<path d="M1730 8125 c13 -14 26 -25 28 -25 3 0 -5 11 -18 25 -13 14 -26 25
-28 25 -3 0 5 -11 18 -25z"/>
<path d="M2941 8107 c2 -2 20 -14 39 -26 l35 -23 -30 26 c-16 14 -34 26 -39
26 -5 0 -7 -1 -5 -3z"/>
<path d="M1789 8081 c14 -13 18 -21 10 -21 -17 -1 156 -69 293 -116 116 -40
288 -71 288 -52 0 4 -15 8 -32 8 -117 2 -410 96 -540 175 -31 19 -36 20 -19 6z"/>
<path d="M1748 8063 c6 -2 18 -2 25 0 6 3 1 5 -13 5 -14 0 -19 -2 -12 -5z"/>
<path d="M1722 8030 c0 -19 2 -27 5 -17 2 9 2 25 0 35 -3 9 -5 1 -5 -18z"/>
<path d="M3020 8056 c0 -2 8 -10 18 -17 15 -13 16 -12 3 4 -13 16 -21 21 -21
13z"/>
<path d="M1732 7975 c0 -11 4 -31 8 -45 6 -20 8 -21 8 -5 0 11 -4 31 -8 45 -6
20 -8 21 -8 5z"/>
<path d="M3101 7988 c2 -2 18 -14 34 -28 l30 -25 -24 28 c-14 15 -29 27 -34
27 -6 0 -8 -1 -6 -2z"/>
<path d="M3220 7876 c19 -23 46 -54 58 -71 14 -18 19 -21 13 -8 -6 12 -32 44
-58 71 -34 34 -38 37 -13 8z"/>
<path d="M1752 7890 c0 -8 4 -26 8 -40 6 -20 8 -21 8 -5 0 11 -3 29 -8 40 -5
12 -8 14 -8 5z"/>
<path d="M2390 7888 c0 -5 16 -8 35 -8 19 0 35 3 35 8 0 4 -16 7 -35 7 -19 0
-35 -3 -35 -7z"/>
<path d="M1771 7810 c0 -17 38 -110 38 -95 1 6 -8 33 -19 60 -10 28 -19 43
-19 35z"/>
<path d="M3313 7745 c9 -16 23 -39 32 -50 9 -11 7 -2 -6 20 -27 49 -47 72 -26
30z"/>
<path d="M3060 7724 c0 -5 7 -18 15 -28 8 -11 15 -16 15 -10 0 5 -7 18 -15 28
-8 11 -15 16 -15 10z"/>
<path d="M1810 7697 c0 -14 31 -69 36 -64 3 3 -4 20 -15 38 -12 19 -21 30 -21
26z"/>
<path d="M3105 7644 c10 -17 26 -41 37 -55 l20 -24 -17 31 c-10 17 -26 41 -37
55 l-20 24 17 -31z"/>
<path d="M3370 7650 c6 -11 13 -20 16 -20 2 0 0 9 -6 20 -6 11 -13 20 -16 20
-2 0 0 -9 6 -20z"/>
<path d="M1865 7602 c12 -14 19 -37 19 -60 -1 -35 -1 -35 3 -4 2 17 8 32 13
32 5 0 43 -11 83 -25 157 -52 397 -103 397 -83 0 4 -17 8 -37 8 -82 0 -435
102 -477 137 l-21 18 20 -23z"/>
<path d="M3421 7565 c12 -22 26 -44 32 -50 15 -16 -20 48 -38 70 -9 11 -7 2 6
-20z"/>
<path d="M3175 7536 c10 -14 19 -26 22 -26 7 0 -17 39 -28 46 -6 3 -3 -5 6
-20z"/>
<path d="M2585 7484 c-49 -7 -114 -13 -142 -13 -29 -1 -53 -5 -53 -10 0 -5 12
-8 28 -6 15 2 57 6 93 9 76 6 201 25 208 32 6 6 -32 3 -134 -12z"/>
<path d="M3210 7480 c6 -11 13 -20 16 -20 2 0 0 9 -6 20 -6 11 -13 20 -16 20
-2 0 0 -9 6 -20z"/>
<path d="M3470 7480 c6 -11 13 -20 16 -20 2 0 0 9 -6 20 -6 11 -13 20 -16 20
-2 0 0 -9 6 -20z"/>
<path d="M1892 7470 c0 -14 2 -19 5 -12 2 6 2 18 0 25 -3 6 -5 1 -5 -13z"/>
<path d="M3230 7449 c0 -3 11 -20 25 -39 14 -19 25 -30 25 -24 -1 10 -50 73
-50 63z"/>
<path d="M3500 7430 c6 -11 13 -20 16 -20 2 0 0 9 -6 20 -6 11 -13 20 -16 20
-2 0 0 -9 6 -20z"/>
<path d="M1901 7435 c1 -19 18 -51 18 -35 0 8 -4 22 -9 30 -5 8 -9 11 -9 5z"/>
<path d="M3533 7375 c9 -16 23 -39 32 -50 9 -11 7 -2 -6 20 -27 49 -47 72 -26
30z"/>
<path d="M1925 7358 c4 -13 11 -27 16 -33 5 -5 4 5 -2 23 -12 36 -24 44 -14
10z"/>
<path d="M3312 7321 c18 -27 35 -48 36 -46 5 4 -57 95 -64 95 -2 0 10 -22 28
-49z"/>
<path d="M1950 7305 c0 -10 40 -75 47 -75 2 0 -6 17 -18 38 -28 45 -29 47 -29
37z"/>
<path d="M3595 7270 c9 -16 18 -30 21 -30 2 0 -2 14 -11 30 -9 17 -18 30 -21
30 -2 0 2 -13 11 -30z"/>
<path d="M3366 7233 c10 -16 24 -40 32 -55 15 -31 25 -38 15 -10 -8 22 -54 92
-60 92 -3 0 3 -12 13 -27z"/>
<path d="M2016 7187 c3 -10 9 -15 12 -12 3 3 0 11 -7 18 -10 9 -11 8 -5 -6z"/>
<path d="M2040 7164 c0 -6 17 -26 38 -45 l37 -34 -35 40 c-19 22 -36 42 -37
44 -2 2 -3 0 -3 -5z"/>
<path d="M3421 7135 c0 -5 6 -21 14 -35 8 -14 14 -20 14 -15 0 6 -6 21 -14 35
-8 14 -14 21 -14 15z"/>
<path d="M2140 7071 c14 -11 30 -21 35 -21 11 0 -7 14 -40 31 -13 7 -12 3 5
-10z"/>
<path d="M3450 7056 c0 -8 4 -17 9 -20 5 -4 7 3 4 14 -6 23 -13 26 -13 6z"/>
<path d="M2195 7040 c3 -5 11 -10 16 -10 6 0 7 5 4 10 -3 6 -11 10 -16 10 -6
0 -7 -4 -4 -10z"/>
<path d="M3060 7046 c0 -2 7 -7 16 -10 8 -3 12 -2 9 4 -6 10 -25 14 -25 6z"/>
<path d="M3109 7037 c5 -5 24 -7 42 -5 33 3 33 4 -8 8 -23 3 -39 2 -34 -3z"/>
<path d="M2855 7030 l-40 -7 37 -2 c20 0 40 4 43 9 3 6 5 9 3 9 -2 -1 -21 -5
-43 -9z"/>
<path d="M2923 7033 c9 -2 25 -2 35 0 9 3 1 5 -18 5 -19 0 -27 -2 -17 -5z"/>
<path d="M3198 7028 c6 -6 18 -8 28 -6 14 3 12 5 -9 10 -19 3 -25 2 -19 -4z"/>
<path d="M2255 7015 c17 -7 48 -16 70 -19 27 -4 19 0 -25 14 -75 22 -88 24
-45 5z"/>
<path d="M2710 7010 c-34 -7 -34 -7 -5 -8 17 0 44 4 60 8 27 7 27 8 5 8 -14
-1 -41 -4 -60 -8z"/>
<path d="M3265 7010 c11 -5 27 -9 35 -9 9 0 8 4 -5 9 -11 5 -27 9 -35 9 -9 0
-8 -4 5 -9z"/>
<path d="M3461 6990 c0 -20 -6 -41 -12 -47 -7 -7 -7 -13 0 -17 12 -8 25 52 18
81 -3 10 -5 2 -6 -17z"/>
<path d="M2633 6993 c9 -2 23 -2 30 0 6 3 -1 5 -18 5 -16 0 -22 -2 -12 -5z"/>
<path d="M3340 6985 c14 -8 30 -14 35 -14 6 0 -1 6 -15 14 -14 8 -29 14 -35
14 -5 0 1 -6 15 -14z"/>
<path d="M2370 6986 c0 -2 13 -6 29 -8 17 -2 28 -1 25 4 -5 8 -54 12 -54 4z"/>
<path d="M2440 6978 c0 -14 93 -14 145 0 21 6 4 8 -58 8 -48 -1 -87 -4 -87 -8z"/>
<path d="M3390 6965 c0 -2 10 -10 23 -16 20 -11 21 -11 8 4 -13 16 -31 23 -31
12z"/>
<path d="M2438 6953 c7 -3 16 -2 19 1 4 3 -2 6 -13 5 -11 0 -14 -3 -6 -6z"/>
<path d="M2388 6943 c6 -2 18 -2 25 0 6 3 1 5 -13 5 -14 0 -19 -2 -12 -5z"/>
<path d="M2310 6930 c-20 -6 -21 -8 -5 -8 11 0 31 4 45 8 20 6 21 8 5 8 -11 0
-31 -4 -45 -8z"/>
<path d="M2215 6910 c-14 -7 -8 -8 20 -3 22 3 42 7 44 9 9 8 -45 2 -64 -6z"/>
<path d="M3485 6900 c3 -5 8 -10 11 -10 2 0 4 5 4 10 0 6 -5 10 -11 10 -5 0
-7 -4 -4 -10z"/>
<path d="M2110 6885 c-25 -7 -38 -13 -30 -14 8 0 38 6 65 13 28 8 41 14 30 14
-11 0 -40 -6 -65 -13z"/>
<path d="M3549 6845 c59 -67 68 -75 44 -40 -12 17 -36 44 -54 60 -25 22 -22
17 10 -20z"/>
<path d="M2000 6860 c-20 -6 -21 -8 -5 -8 11 0 31 4 45 8 20 6 21 8 5 8 -11 0
-31 -4 -45 -8z"/>
<path d="M1918 6843 c-10 -2 -18 -8 -18 -13 0 -4 8 -14 18 -21 15 -13 16 -12
4 3 -12 15 -10 18 20 27 32 9 10 13 -24 4z"/>
<path d="M3305 6799 c4 -5 14 -9 24 -9 10 0 38 -11 64 -23 25 -13 44 -20 41
-15 -3 4 -17 14 -32 22 -38 19 -103 36 -97 25z"/>
<path d="M1942 6770 c7 -11 17 -20 22 -20 5 0 1 9 -9 20 -10 11 -20 20 -22 20
-2 0 2 -9 9 -20z"/>
<path d="M3465 6720 c10 -11 20 -20 23 -20 3 0 -3 9 -13 20 -10 11 -20 20 -23
20 -3 0 3 -9 13 -20z"/>
<path d="M2035 6680 c8 -13 95 -73 100 -68 1 1 -22 20 -52 40 -30 21 -51 33
-48 28z"/>
<path d="M3500 6686 c0 -2 7 -7 16 -10 8 -3 12 -2 9 4 -6 10 -25 14 -25 6z"/>
<path d="M2675 6630 c-89 -43 -182 -70 -247 -71 -41 -1 -42 -1 -13 -10 41 -12
166 22 270 73 44 22 82 42 84 44 12 11 -22 -2 -94 -36z"/>
<path d="M3540 6653 c0 -5 12 -20 28 -34 l27 -24 -25 30 c-14 17 -26 32 -27
34 -2 2 -3 0 -3 -6z"/>
<path d="M2155 6600 c3 -4 14 -10 25 -13 11 -3 18 -2 15 3 -3 4 -14 10 -25 13
-11 3 -18 2 -15 -3z"/>
<path d="M2217 6579 c7 -7 15 -10 18 -7 3 3 -2 9 -12 12 -14 6 -15 5 -6 -5z"/>
<path d="M2258 6563 c6 -2 18 -2 25 0 6 3 1 5 -13 5 -14 0 -19 -2 -12 -5z"/>
<path d="M2318 6553 c12 -2 32 -2 45 0 12 2 2 4 -23 4 -25 0 -35 -2 -22 -4z"/>
<path d="M2383 6533 c9 -2 23 -2 30 0 6 3 -1 5 -18 5 -16 0 -22 -2 -12 -5z"/>
<path d="M2314 6515 c-18 -14 -17 -17 42 -73 54 -51 124 -101 124 -88 0 2 -17
15 -37 27 -43 26 -133 108 -133 120 0 4 12 12 28 17 15 6 20 11 11 11 -8 1
-24 -6 -35 -14z"/>
<path d="M3020 6436 c-69 -50 -188 -91 -346 -120 -43 -8 -72 -15 -62 -15 11
-1 15 -7 11 -20 -3 -10 0 -22 5 -25 6 -3 8 2 5 13 -3 13 2 20 19 26 13 4 27 7
31 6 5 -1 23 3 40 9 18 5 72 22 121 36 87 26 155 58 212 101 46 35 14 25 -36
-11z"/>
<path d="M2506 6336 c10 -8 21 -12 24 -10 5 6 -21 24 -34 24 -6 0 -1 -6 10
-14z"/>
<path d="M2550 6320 c8 -5 22 -9 30 -9 10 0 8 3 -5 9 -27 12 -43 12 -25 0z"/>
<path d="M3443 6239 c-18 -5 -33 -12 -33 -15 0 -3 10 -2 23 2 12 4 47 10 77
14 55 7 55 7 10 8 -25 0 -60 -4 -77 -9z"/>
<path d="M3579 6237 c5 -5 26 -7 47 -5 l39 3 -47 5 c-26 3 -43 1 -39 -3z"/>
<path d="M3678 6223 c6 -2 18 -2 25 0 6 3 1 5 -13 5 -14 0 -19 -2 -12 -5z"/>
<path d="M3331 6189 c-30 -16 -49 -29 -42 -29 12 0 71 29 101 49 29 20 -5 8
-59 -20z"/>
<path d="M2714 6175 c27 -19 54 -35 59 -35 5 0 -14 16 -43 35 -29 19 -55 35
-58 35 -4 0 15 -16 42 -35z"/>
<path d="M3220 6145 c-19 -7 -28 -14 -20 -14 8 0 29 6 45 14 39 17 21 18 -25
0z"/>
<path d="M2815 6125 c17 -8 39 -14 50 -14 11 0 0 7 -25 15 -56 17 -64 17 -25
-1z"/>
<path d="M3125 6120 c-27 -7 -28 -8 -5 -8 14 0 34 3 45 8 25 11 2 11 -40 0z"/>
<path d="M2898 6103 c6 -2 18 -2 25 0 6 3 1 5 -13 5 -14 0 -19 -2 -12 -5z"/>
<path d="M2940 6099 c0 -5 5 -7 10 -4 6 3 10 8 10 11 0 2 -4 4 -10 4 -5 0 -10
-5 -10 -11z"/>
<path d="M3038 6103 c12 -2 30 -2 40 0 9 3 -1 5 -23 4 -22 0 -30 -2 -17 -4z"/>
</g>
</svg>
